<svg width="234" height="176" viewBox="0 0 234 176" fill="none" xmlns="http://www.w3.org/2000/svg">
<path fill-rule="evenodd" clip-rule="evenodd" d="M0 31.071H38V122.071H0V31.071ZM4 39.071H12V54.071H4V39.071ZM25 39.071H17V54.071H25V39.071Z" fill="url(#paint0_linear_459_15362)"/>
<path fill-rule="evenodd" clip-rule="evenodd" d="M42 13.071H80V104.071H42V13.071ZM48 19.071H56V34.071H48V19.071ZM56 39.071H48V54.071H56V39.071Z" fill="url(#paint1_linear_459_15362)"/>
<path fill-rule="evenodd" clip-rule="evenodd" d="M72 47.071H110V138.071H72V47.071ZM93 55.071H101V70.071H93V55.071ZM101 75.071H93V90.071H101V75.071Z" fill="url(#paint2_linear_459_15362)"/>
<path fill-rule="evenodd" clip-rule="evenodd" d="M104 62.071H142V153.071H104V62.071ZM127 70.071H135V85.071H127V70.071ZM120 70.071H112V85.071H120V70.071Z" fill="url(#paint3_linear_459_15362)"/>
<path fill-rule="evenodd" clip-rule="evenodd" d="M201 0.0710449H234V91.071H201V0.0710449ZM208 7.07104H216V12.071H208V7.07104ZM216 15.071H208V20.071H216V15.071ZM219 7.07104H227V12.071H219V7.07104ZM227 15.071H219V20.071H227V15.071Z" fill="url(#paint4_linear_459_15362)"/>
<path fill-rule="evenodd" clip-rule="evenodd" d="M175 58.071H217V149.071H175V58.071ZM200 66.071H208V81.071H200V66.071ZM208 89.071H200V104.071H208V89.071Z" fill="url(#paint5_linear_459_15362)"/>
<path fill-rule="evenodd" clip-rule="evenodd" d="M142 33.071H184V124.071H142V33.071ZM151 41.071H159V56.071H151V41.071ZM159 64.071H151V79.071H159V64.071Z" fill="url(#paint6_linear_459_15362)"/>
<path fill-rule="evenodd" clip-rule="evenodd" d="M156.25 19.4424L150.308 16.1924L156.25 12.9424L159.5 7L162.75 12.9424L168.692 16.1924L162.75 19.4424L159.5 25.3848L156.25 19.4424Z" fill="url(#paint7_linear_459_15362)"/>
<path fill-rule="evenodd" clip-rule="evenodd" d="M98.5 21.5711L93.9289 19.0711L98.5 16.5711L101 12L103.5 16.5711L108.071 19.0711L103.5 21.5711L101 26.1421L98.5 21.5711Z" fill="url(#paint8_linear_459_15362)"/>
<ellipse cx="117" cy="156.071" rx="31" ry="5" fill="#DCDCDC"/>
<path d="M88.5 90.5H117V62H145.5V138H88.5V90.5ZM88.6045 84.1682L110.668 62.019V84.1682H88.6045ZM97.4727 119.252C97.5915 120.625 98.095 121.755 98.988 122.648C99.8763 123.536 101.477 123.978 103.79 123.978C105.111 123.978 106.203 123.788 107.068 123.408C107.893 123.063 108.597 122.481 109.091 121.736C109.567 121.021 109.818 120.181 109.813 119.323C109.822 118.616 109.635 117.921 109.272 117.314C108.846 116.656 108.244 116.133 107.533 115.803C106.74 115.399 105.424 114.996 103.591 114.602C102.845 114.45 102.375 114.283 102.18 114.103C101.976 113.927 101.871 113.732 101.871 113.518C101.87 113.372 101.903 113.227 101.967 113.095C102.032 112.963 102.126 112.848 102.242 112.758C102.489 112.554 102.859 112.45 103.348 112.45C103.942 112.45 104.408 112.592 104.745 112.868C105.078 113.148 105.301 113.59 105.41 114.202L109.367 113.97C109.196 112.564 108.654 111.533 107.738 110.887C106.826 110.241 105.505 109.918 103.767 109.918C102.346 109.918 101.235 110.094 100.418 110.45C99.678 110.748 99.0432 111.259 98.5938 111.918C98.1993 112.503 97.9877 113.193 97.9858 113.898C97.9739 114.397 98.0745 114.893 98.28 115.347C98.4856 115.802 98.7909 116.205 99.1733 116.525C99.957 117.209 101.273 117.76 103.116 118.174C104.242 118.421 104.959 118.686 105.268 118.962C105.41 119.077 105.525 119.221 105.606 119.385C105.686 119.549 105.73 119.729 105.733 119.912C105.729 120.101 105.683 120.286 105.599 120.454C105.514 120.623 105.393 120.77 105.244 120.886C104.849 121.192 104.356 121.344 103.857 121.313C103.049 121.313 102.432 121.033 102.004 120.482C101.699 120.044 101.513 119.533 101.467 119L97.468 119.252H97.4727ZM126.519 110.151V123.75H137.283V120.401H130.728V110.151H126.519ZM123.389 121.764C124.382 120.558 124.875 118.952 124.875 116.938C124.875 114.682 124.258 112.948 123.033 111.737C121.807 110.521 120.064 109.918 117.808 109.918C115.589 109.918 113.865 110.535 112.63 111.775C111.395 113.02 110.782 114.758 110.782 117C110.782 119.304 111.485 121.095 112.896 122.368C114.093 123.446 115.722 123.983 117.789 123.983C119.185 123.983 120.349 123.783 121.275 123.38C121.503 123.579 121.907 123.874 122.482 124.263C123.056 124.657 123.636 124.994 124.225 125.279L125.393 122.924C125.061 122.781 124.736 122.622 124.42 122.448C124.069 122.231 123.725 122.003 123.389 121.764ZM120.173 119.613C120.506 119.014 120.672 118.116 120.672 116.924C120.672 115.547 120.415 114.568 119.907 113.979C119.643 113.685 119.317 113.453 118.952 113.301C118.587 113.149 118.193 113.08 117.798 113.101C117.413 113.088 117.03 113.163 116.678 113.319C116.326 113.476 116.014 113.709 115.765 114.003C115.242 114.602 114.986 115.537 114.986 116.81C114.986 118.297 115.238 119.337 115.746 119.936C116.254 120.539 116.948 120.838 117.836 120.838C118.121 120.838 118.387 120.81 118.643 120.753C118.151 120.33 117.584 120.003 116.972 119.789L117.627 118.278C117.926 118.323 118.218 118.406 118.496 118.525C118.705 118.625 119.109 118.886 119.707 119.304C119.85 119.404 120.002 119.508 120.173 119.613Z" fill="url(#paint9_linear_459_15362)"/>
<defs>
<linearGradient id="paint0_linear_459_15362" x1="0" y1="31.071" x2="0" y2="122.071" gradientUnits="userSpaceOnUse">
<stop stop-color="#E2E3E6"/>
<stop offset="1" stop-color="#D2D2D2" stop-opacity="0.01"/>
</linearGradient>
<linearGradient id="paint1_linear_459_15362" x1="42" y1="13.071" x2="42" y2="104.071" gradientUnits="userSpaceOnUse">
<stop stop-color="#E2E3E6"/>
<stop offset="1" stop-color="#D2D2D2" stop-opacity="0.01"/>
</linearGradient>
<linearGradient id="paint2_linear_459_15362" x1="72" y1="47.071" x2="72" y2="138.071" gradientUnits="userSpaceOnUse">
<stop stop-color="#E2E3E6"/>
<stop offset="1" stop-color="#D2D2D2" stop-opacity="0.01"/>
</linearGradient>
<linearGradient id="paint3_linear_459_15362" x1="104" y1="62.071" x2="104" y2="153.071" gradientUnits="userSpaceOnUse">
<stop stop-color="#E2E3E6"/>
<stop offset="1" stop-color="#D2D2D2" stop-opacity="0.01"/>
</linearGradient>
<linearGradient id="paint4_linear_459_15362" x1="201" y1="0.0710449" x2="201" y2="91.071" gradientUnits="userSpaceOnUse">
<stop stop-color="#E2E3E6"/>
<stop offset="1" stop-color="#D2D2D2" stop-opacity="0.01"/>
</linearGradient>
<linearGradient id="paint5_linear_459_15362" x1="175" y1="58.071" x2="175" y2="149.071" gradientUnits="userSpaceOnUse">
<stop stop-color="#E2E3E6"/>
<stop offset="1" stop-color="#D2D2D2" stop-opacity="0.01"/>
</linearGradient>
<linearGradient id="paint6_linear_459_15362" x1="142" y1="33.071" x2="142" y2="124.071" gradientUnits="userSpaceOnUse">
<stop stop-color="#E2E3E6"/>
<stop offset="1" stop-color="#D2D2D2" stop-opacity="0.01"/>
</linearGradient>
<linearGradient id="paint7_linear_459_15362" x1="159.5" y1="7" x2="150.308" y2="16.1924" gradientUnits="userSpaceOnUse">
<stop stop-color="#CACED5"/>
<stop offset="1" stop-color="#E4E4E4"/>
</linearGradient>
<linearGradient id="paint8_linear_459_15362" x1="101" y1="12" x2="93.9289" y2="19.0711" gradientUnits="userSpaceOnUse">
<stop stop-color="#CACED5"/>
<stop offset="1" stop-color="#E4E4E4"/>
</linearGradient>
<linearGradient id="paint9_linear_459_15362" x1="117" y1="62" x2="117" y2="138" gradientUnits="userSpaceOnUse">
<stop stop-color="#C9C9C9"/>
<stop offset="1" stop-color="#A3A3A3"/>
</linearGradient>
</defs>
</svg>
